<svg width="140" height="140" viewBox="0 0 140 140" fill="none" xmlns="http://www.w3.org/2000/svg">
<path fill-rule="evenodd" clip-rule="evenodd" d="M44.5838 119.481C31.19 109.609 24.8254 89.0304 24.5721 68.7539C24.2218 48.453 29.8615 28.5271 41.0344 19.7923C52.2074 11.0576 68.7921 13.5866 81.1041 18.339C93.2947 23.1639 101.116 30.1877 112.445 41.705C123.774 53.2224 138.539 69.1117 136.91 84.1702C135.257 99.3256 117.113 113.626 97.7932 121.133C78.4489 128.736 57.9533 129.45 44.5838 119.481Z" fill="#FFF3DA"/>
<path d="M101.7 51.1802H70.9V104.98H101.7V51.1802Z" fill="#FFC244" stroke="#1A1A1A" stroke-width="2.1945" stroke-linecap="round" stroke-linejoin="round"/>
<path d="M46 51.1801L58.5 38.5801L70.9 51.1801V104.88H46V51.1801Z" fill="#FFC244" stroke="#1A1A1A" stroke-width="2.1945" stroke-linecap="round" stroke-linejoin="round"/>
<path d="M85 60.2803H78.8V66.4803H85V60.2803Z" fill="white" stroke="#1A1A1A" stroke-width="2.1945" stroke-linecap="round" stroke-linejoin="round"/>
<path d="M96.8 60.2803H90.6V66.4803H96.8V60.2803Z" fill="white" stroke="#1A1A1A" stroke-width="2.1945" stroke-linecap="round" stroke-linejoin="round"/>
<path d="M91.1 91.8799H84.9V104.98H91.1V91.8799Z" fill="white" stroke="#1A1A1A" stroke-width="2.1945" stroke-linecap="round" stroke-linejoin="round"/>
<path d="M61.5 60.2803H55.3V66.4803H61.5V60.2803Z" fill="white" stroke="#1A1A1A" stroke-width="2.1945" stroke-linecap="round" stroke-linejoin="round"/>
<path d="M61.5 82.0801H55.3V88.2801H61.5V82.0801Z" fill="white" stroke="#1A1A1A" stroke-width="2.1945" stroke-linecap="round" stroke-linejoin="round"/>
<path d="M70.9 51.1801L58.5 38.5801H90.5L101.8 51.0801H70.9V51.1801Z" fill="white" stroke="#1A1A1A" stroke-width="2.1945" stroke-linecap="round" stroke-linejoin="round"/>
<path d="M57.6999 31.1797H26.8999V107.68H57.6999V31.1797Z" fill="white" stroke="#1A1A1A" stroke-width="2.1945" stroke-linecap="round" stroke-linejoin="round"/>
<path d="M26.9 31.1797H2V107.68H26.9V31.1797Z" fill="white" stroke="#1A1A1A" stroke-width="2.1945" stroke-linecap="round" stroke-linejoin="round"/>
<path d="M17.4999 41.2803H11.2999V47.4803H17.4999V41.2803Z" fill="#FFC244" stroke="#1A1A1A" stroke-width="2.1945" stroke-linecap="round" stroke-linejoin="round"/>
<path d="M40.9999 41.2803H34.7999V47.4803H40.9999V41.2803Z" fill="#FFC244" stroke="#1A1A1A" stroke-width="2.1945" stroke-linecap="round" stroke-linejoin="round"/>
<path d="M52.7999 41.2803H46.7V47.4803H52.8999V41.2803H52.7999Z" fill="#FFC244" stroke="#1A1A1A" stroke-width="2.1945" stroke-linecap="round" stroke-linejoin="round"/>
<path d="M40.9999 62.98H34.7999V69.18H40.9999V62.98Z" fill="#FFC244" stroke="#1A1A1A" stroke-width="2.1945" stroke-linecap="round" stroke-linejoin="round"/>
<path d="M52.7999 62.98H46.7V69.18H52.8999V62.98H52.7999Z" fill="#FFC244" stroke="#1A1A1A" stroke-width="2.1945" stroke-linecap="round" stroke-linejoin="round"/>
<path d="M47.2 94.5801H41V107.68H47.2V94.5801Z" fill="#FFC244" stroke="#1A1A1A" stroke-width="2.1945" stroke-linecap="round" stroke-linejoin="round"/>
<path d="M17.4999 62.98H11.2999V69.18H17.4999V62.98Z" fill="#FFC244" stroke="#1A1A1A" stroke-width="2.1945" stroke-linecap="round" stroke-linejoin="round"/>
<path d="M17.4999 84.7803H11.2999V90.9803H17.4999V84.7803Z" fill="#FFC244" stroke="#1A1A1A" stroke-width="2.1945" stroke-linecap="round" stroke-linejoin="round"/>
<path d="M22.7 31.1801V17.5801" stroke="#1A1A1A" stroke-width="2.1945" stroke-linecap="round" stroke-linejoin="round"/>
<path d="M19.5 26.7803H26.9" stroke="#1A1A1A" stroke-width="2.1945" stroke-linecap="round" stroke-linejoin="round"/>
<path d="M23.2 20.98H26.9" stroke="#1A1A1A" stroke-width="2.1945" stroke-linecap="round" stroke-linejoin="round"/>
<path d="M106.7 93.8799V105.18V93.8799Z" fill="#FFC244"/>
<path d="M106.7 93.8799V105.18" stroke="#1A1A1A" stroke-width="2.1945" stroke-linecap="round" stroke-linejoin="round"/>
<path d="M106.7 93.9801C111 93.9801 114.4 90.4801 114.4 86.2801C114.4 82.0801 110.9 78.5801 106.7 78.5801C102.4 78.5801 99 82.0801 99 86.2801C99 90.4801 102.4 93.9801 106.7 93.9801Z" fill="white" stroke="#1A1A1A" stroke-width="2.1945" stroke-linecap="round" stroke-linejoin="round"/>
<path fill-rule="evenodd" clip-rule="evenodd" d="M92.1863 29.2996C91.1091 28.5391 89.7878 28.3231 88.9165 28.3667C88.435 28.3908 88.0252 28.02 88.0011 27.5385C87.977 27.057 88.3478 26.6472 88.8293 26.6231C89.9936 26.5649 91.7258 26.8375 93.1931 27.8735C94.7092 28.9438 95.8527 30.7685 95.8527 33.6018C95.8527 34.0839 95.4619 34.4747 94.9798 34.4747C94.4977 34.4747 94.1069 34.0839 94.1069 33.6018C94.1069 31.3054 93.2148 30.0257 92.1863 29.2996Z" fill="black"/>
<path fill-rule="evenodd" clip-rule="evenodd" d="M97.7733 29.2996C98.8505 28.5391 100.172 28.3231 101.043 28.3667C101.525 28.3908 101.934 28.02 101.958 27.5385C101.983 27.057 101.612 26.6472 101.13 26.6231C99.966 26.5649 98.2338 26.8375 96.7665 27.8735C95.2504 28.9438 94.1069 30.7685 94.1069 33.6018C94.1069 34.0839 94.4977 34.4747 94.9798 34.4747C95.4619 34.4747 95.8527 34.0839 95.8527 33.6018C95.8527 31.3054 96.7448 30.0257 97.7733 29.2996Z" fill="black"/>
<path fill-rule="evenodd" clip-rule="evenodd" d="M112.186 55.2996C111.109 54.5391 109.788 54.3231 108.916 54.3667C108.435 54.3908 108.025 54.02 108.001 53.5385C107.977 53.057 108.348 52.6472 108.829 52.6231C109.994 52.5649 111.726 52.8375 113.193 53.8735C114.709 54.9438 115.853 56.7685 115.853 59.6018C115.853 60.0839 115.462 60.4747 114.98 60.4747C114.498 60.4747 114.107 60.0839 114.107 59.6018C114.107 57.3054 113.215 56.0257 112.186 55.2996Z" fill="black"/>
<path fill-rule="evenodd" clip-rule="evenodd" d="M117.773 55.2996C118.851 54.5391 120.172 54.3231 121.043 54.3667C121.525 54.3908 121.934 54.02 121.958 53.5385C121.983 53.057 121.612 52.6472 121.13 52.6231C119.966 52.5649 118.234 52.8375 116.766 53.8735C115.25 54.9438 114.107 56.7685 114.107 59.6018C114.107 60.0839 114.498 60.4747 114.98 60.4747C115.462 60.4747 115.853 60.0839 115.853 59.6018C115.853 57.3054 116.745 56.0257 117.773 55.2996Z" fill="black"/>
<path fill-rule="evenodd" clip-rule="evenodd" d="M118.186 36.2996C117.109 35.5391 115.788 35.3231 114.916 35.3667C114.435 35.3908 114.025 35.02 114.001 34.5385C113.977 34.057 114.348 33.6472 114.829 33.6231C115.994 33.5649 117.726 33.8375 119.193 34.8735C120.709 35.9438 121.853 37.7685 121.853 40.6018C121.853 41.0839 121.462 41.4747 120.98 41.4747C120.498 41.4747 120.107 41.0839 120.107 40.6018C120.107 38.3054 119.215 37.0257 118.186 36.2996Z" fill="black"/>
<path fill-rule="evenodd" clip-rule="evenodd" d="M123.773 36.2996C124.851 35.5391 126.172 35.3231 127.043 35.3667C127.525 35.3908 127.934 35.02 127.958 34.5385C127.983 34.057 127.612 33.6472 127.13 33.6231C125.966 33.5649 124.234 33.8375 122.766 34.8735C121.25 35.9438 120.107 37.7685 120.107 40.6018C120.107 41.0839 120.498 41.4747 120.98 41.4747C121.462 41.4747 121.853 41.0839 121.853 40.6018C121.853 38.3054 122.745 37.0257 123.773 36.2996Z" fill="black"/>
</svg>
